<svg xmlns="http://www.w3.org/2000/svg" xmlns:xlink="http://www.w3.org/1999/xlink"
  viewBox="0 0 218 130" width="218" height="130" preserveAspectRatio="xMidYMid meet"
  style="width: 100%; height: 100%; transform: translate3d(0px, 0px, 0px); content-visibility: visible;">
  <defs>
    <clipPath id="__lottie_element_85">
      <rect width="218" height="130" x="0" y="0"></rect>
    </clipPath>
    <symbol id="__lottie_element_91">
      <g>
        <g transform="matrix(1,0,0,1,38.343997955322266,24.593997955322266)" opacity="1"
          style="display: block;">
          <g opacity="1" transform="matrix(1,0,0,1,70.75,56.98500061035156)">
            <path fill="rgb(255,255,255)" fill-opacity="1"
              d=" M-0.7210000157356262,52.9900016784668 C-0.7210000157356262,52.9900016784668 -1.8300000429153442,53.595001220703125 -1.8300000429153442,53.595001220703125 C-1.8300000429153442,53.595001220703125 -1.3650000095367432,52.518001556396484 -1.3650000095367432,52.518001556396484 C-1.3650000095367432,52.518001556396484 -10.458999633789062,45.840999603271484 -10.458999633789062,45.840999603271484 C-21.92300033569336,37.42300033569336 -39.933998107910156,34.2140007019043 -41.24800109863281,33.987998962402344 C-57.93299865722656,31.87299919128418 -70.5,17.610000610351562 -70.5,0.7649999856948853 C-70.5,-16.849000930786133 -56.8380012512207,-31.329999923706055 -39.55400085449219,-32.638999938964844 C-31.957000732421875,-47.37900161743164 -16.767000198364258,-56.73500061035156 0,-56.73500061035156 C16.76799964904785,-56.73500061035156 31.957000732421875,-47.37900161743164 39.55500030517578,-32.638999938964844 C56.8380012512207,-31.329999923706055 70.5,-16.849000930786133 70.5,0.7649999856948853 C70.5,17.66900062561035 57.858001708984375,31.961000442504883 41.09400177001953,34.007999420166016 C41.04100036621094,34.01499938964844 31.43000030517578,35.45199966430664 10.895000457763672,46.65399932861328 C10.895000457763672,46.65399932861328 2.1019999980926514,51.45000076293945 2.1019999980926514,51.45000076293945 C2.1019999980926514,51.45000076293945 4.379000186920166,56.73500061035156 4.379000186920166,56.73500061035156 C4.379000186920166,56.73500061035156 -0.7210000157356262,52.9900016784668 -0.7210000157356262,52.9900016784668z M0.5979999899864197,47.9640007019043 C0.5979999899864197,47.9640007019043 1.7089999914169312,45.38800048828125 1.7089999914169312,45.38800048828125 C1.7089999914169312,45.38800048828125 -0.20900000631809235,44.691001892089844 -0.20900000631809235,44.691001892089844 C-0.45100000500679016,44.60300064086914 -0.6909999847412109,44.512001037597656 -0.9300000071525574,44.41899871826172 C-0.9300000071525574,44.41899871826172 0.5979999899864197,47.9640007019043 0.5979999899864197,47.9640007019043z"></path>
          </g>
        </g>
      </g>
    </symbol>
    <symbol id="__lottie_element_97">
      <g>
        <g transform="matrix(1,0,0,1,38.343997955322266,24.593997955322266)" opacity="1"
          style="display: block;">
          <g opacity="1" transform="matrix(1,0,0,1,70.75,56.98500061035156)">
            <path fill="rgb(255,255,255)" fill-opacity="1"
              d=" M-0.7210000157356262,52.9900016784668 C-0.7210000157356262,52.9900016784668 -1.8300000429153442,53.595001220703125 -1.8300000429153442,53.595001220703125 C-1.8300000429153442,53.595001220703125 -1.3650000095367432,52.518001556396484 -1.3650000095367432,52.518001556396484 C-1.3650000095367432,52.518001556396484 -10.458999633789062,45.840999603271484 -10.458999633789062,45.840999603271484 C-21.92300033569336,37.42300033569336 -39.933998107910156,34.2140007019043 -41.24800109863281,33.987998962402344 C-57.93299865722656,31.87299919128418 -70.5,17.610000610351562 -70.5,0.7649999856948853 C-70.5,-16.849000930786133 -56.8380012512207,-31.329999923706055 -39.55400085449219,-32.638999938964844 C-31.957000732421875,-47.37900161743164 -16.767000198364258,-56.73500061035156 0,-56.73500061035156 C16.76799964904785,-56.73500061035156 31.957000732421875,-47.37900161743164 39.55500030517578,-32.638999938964844 C56.8380012512207,-31.329999923706055 70.5,-16.849000930786133 70.5,0.7649999856948853 C70.5,17.66900062561035 57.858001708984375,31.961000442504883 41.09400177001953,34.007999420166016 C41.04100036621094,34.01499938964844 31.43000030517578,35.45199966430664 10.895000457763672,46.65399932861328 C10.895000457763672,46.65399932861328 2.1019999980926514,51.45000076293945 2.1019999980926514,51.45000076293945 C2.1019999980926514,51.45000076293945 4.379000186920166,56.73500061035156 4.379000186920166,56.73500061035156 C4.379000186920166,56.73500061035156 -0.7210000157356262,52.9900016784668 -0.7210000157356262,52.9900016784668z M0.5979999899864197,47.9640007019043 C0.5979999899864197,47.9640007019043 1.7089999914169312,45.38800048828125 1.7089999914169312,45.38800048828125 C1.7089999914169312,45.38800048828125 -0.20900000631809235,44.691001892089844 -0.20900000631809235,44.691001892089844 C-0.45100000500679016,44.60300064086914 -0.6909999847412109,44.512001037597656 -0.9300000071525574,44.41899871826172 C-0.9300000071525574,44.41899871826172 0.5979999899864197,47.9640007019043 0.5979999899864197,47.9640007019043z"></path>
          </g>
        </g>
      </g>
    </symbol>
    <clipPath id="__lottie_element_101">
      <path d="M0,0 L1366,0 L1366,768 L0,768z"></path>
    </clipPath>
    <symbol id="__lottie_element_104">
      <g>
        <g transform="matrix(1,0,0,1,43,29.749996185302734)" opacity="1" style="display: block;">
          <g opacity="1" transform="matrix(1,0,0,1,65.75,45.88999938964844)">
            <path fill="rgb(52,86,234)" fill-opacity="1"
              d=" M37,-21.639999389648438 C36.78099822998047,-21.639999389648438 36.56399917602539,-21.62700080871582 36.34700012207031,-21.621999740600586 C30.323999404907227,-35.74100112915039 16.319000244140625,-45.63999938964844 0,-45.63999938964844 C-16.319000244140625,-45.63999938964844 -30.325000762939453,-35.74100112915039 -36.34700012207031,-21.621999740600586 C-36.56399917602539,-21.62700080871582 -36.78099822998047,-21.639999389648438 -37,-21.639999389648438 C-52.7400016784668,-21.639999389648438 -65.5,-8.880000114440918 -65.5,6.860000133514404 C-65.5,21.4060001373291 -54.60100173950195,33.39899826049805 -40.525001525878906,35.13600158691406 C-40.525001525878906,35.13600158691406 -28.393999099731445,37.04600143432617 -16.792999267578125,43.38199996948242 C-15.170000076293945,44.268001556396484 -13.385000228881836,42.555999755859375 -14.170000076293945,40.88199996948242 C-14.37399959564209,40.45000076293945 -14.565999984741211,40.016998291015625 -14.741999626159668,39.5890007019043 C-14.980999946594238,39.007999420166016 -14.28499984741211,38.5099983215332 -13.807000160217285,38.91699981689453 C-11.746999740600586,40.66600036621094 -8.833000183105469,42.43899917602539 -5.34499979019165,44.06399917602539 C-1.9639999866485596,45.638999938964844 1.9639999866485596,45.638999938964844 5.3460001945495605,44.06399917602539 C8.833000183105469,42.43899917602539 11.746000289916992,40.66600036621094 13.807000160217285,38.91699981689453 C14.28499984741211,38.5099983215332 14.979999542236328,39.007999420166016 14.741999626159668,39.5890007019043 C14.565999984741211,40.016998291015625 14.373000144958496,40.45000076293945 14.170999526977539,40.88199996948242 C13.385000228881836,42.555999755859375 15.170000076293945,44.268001556396484 16.792999267578125,43.38199996948242 C28.393999099731445,37.04600143432617 40.52399826049805,35.13600158691406 40.52399826049805,35.13600158691406 C54.60100173950195,33.39899826049805 65.5,21.4060001373291 65.5,6.860000133514404 C65.5,-8.880000114440918 52.7400016784668,-21.639999389648438 37,-21.639999389648438z"></path>
          </g>
        </g>
      </g>
    </symbol>
    <symbol id="__lottie_element_116">
      <g>
        <g transform="matrix(1,0,0,0.019999999552965164,48.34400177001953,56.74504089355469)"
          opacity="1" style="display: block;">
          <path fill="rgb(255,255,255)" fill-opacity="1"
            d=" M20.66,-3.12 C39.42,-3.12 54.66,5.28 54.66,15.63 C54.66,25.98 39.42,34.38 20.66,34.38 C1.89,34.38 -13.34,25.98 -13.34,15.63 C-13.34,5.28 1.89,-3.12 20.66,-3.12z"></path>
          <g opacity="1" transform="matrix(1,0,0,1,20.6560001373291,15.626999855041504)">
            <path fill="rgb(255,255,255)" fill-opacity="1"
              d=" M0,-18.75 C18.76460075378418,-18.75 34,-10.348125457763672 34,0 C34,10.348125457763672 18.76460075378418,18.75 0,18.75 C-18.76460075378418,18.75 -34,10.348125457763672 -34,0 C-34,-10.348125457763672 -18.76460075378418,-18.75 0,-18.75z"></path>
          </g>
        </g>
      </g>
    </symbol>
    <symbol id="__lottie_element_129">
      <g>
        <g transform="matrix(1,0,0,0.019999999552965164,125.843994140625,56.74503707885742)"
          opacity="1" style="display: block;">
          <path fill="rgb(255,255,255)" fill-opacity="1"
            d=" M20.66,-3.12 C39.42,-3.12 54.66,5.28 54.66,15.63 C54.66,25.98 39.42,34.38 20.66,34.38 C1.89,34.38 -13.34,25.98 -13.34,15.63 C-13.34,5.28 1.89,-3.12 20.66,-3.12z"></path>
          <g opacity="1" transform="matrix(1,0,0,1,20.6560001373291,15.626999855041504)">
            <path fill="rgb(255,255,255)" fill-opacity="1"
              d=" M0,-18.75 C18.76460075378418,-18.75 34,-10.348125457763672 34,0 C34,10.348125457763672 18.76460075378418,18.75 0,18.75 C-18.76460075378418,18.75 -34,10.348125457763672 -34,0 C-34,-10.348125457763672 -18.76460075378418,-18.75 0,-18.75z"></path>
          </g>
        </g>
      </g>
    </symbol>
    <mask id="__lottie_element_129_1" mask-type="alpha">
      <use xlink:href="#__lottie_element_129"></use>
    </mask>
    <mask id="__lottie_element_116_1" mask-type="alpha">
      <use xlink:href="#__lottie_element_116"></use>
    </mask>
    <mask id="__lottie_element_104_1" mask-type="alpha">
      <use xlink:href="#__lottie_element_104"></use>
    </mask>
    <filter id="__lottie_element_132" filterUnits="objectBoundingBox" x="0%" y="0%" width="100%"
      height="100%">
      <feComponentTransfer in="SourceGraphic">
        <feFuncA type="table" tableValues="1.0 0.0"></feFuncA>
      </feComponentTransfer>
    </filter>
    <mask id="__lottie_element_97_2" mask-type="alpha">
      <g filter="url(#__lottie_element_132)">
        <rect width="218" height="130" x="0" y="0" fill="#ffffff" opacity="0"></rect>
        <use xlink:href="#__lottie_element_97"></use>
      </g>
    </mask>
    <filter id="__lottie_element_133" filterUnits="objectBoundingBox" x="0%" y="0%" width="100%"
      height="100%">
      <feComponentTransfer in="SourceGraphic">
        <feFuncA type="table" tableValues="1.0 0.0"></feFuncA>
      </feComponentTransfer>
    </filter>
    <mask id="__lottie_element_91_2" mask-type="alpha">
      <g filter="url(#__lottie_element_133)">
        <rect width="218" height="130" x="0" y="0" fill="#ffffff" opacity="0"></rect>
        <use xlink:href="#__lottie_element_91"></use>
      </g>
    </mask>
  </defs>
  <g clip-path="url(#__lottie_element_85)">
    <g mask="url(#__lottie_element_91_2)" style="display: block;">
      <g transform="matrix(1,0,0,1,28.534000396728516,12.592994689941406)" opacity="1">
        <g opacity="1" transform="matrix(1,0,0,1,22.655000686645508,22.465999603271484)">
          <path fill="rgb(252,172,124)" fill-opacity="1"
            d=" M-5.677999973297119,-16.132999420166016 C-6.735000133514404,-19.652000427246094 -9.998000144958496,-22.21500015258789 -13.861000061035156,-22.21500015258789 C-18.579999923706055,-22.21500015258789 -22.405000686645508,-18.389999389648438 -22.405000686645508,-13.670999526977539 C-22.405000686645508,-8.95199966430664 -18.579999923706055,-5.126999855041504 -13.861000061035156,-5.126999855041504 C-11.644000053405762,-5.126999855041504 -9.62399959564209,-5.9710001945495605 -8.105999946594238,-7.355999946594238 C-8.02299976348877,-7.357999801635742 -7.974999904632568,-7.372000217437744 -7.974999904632568,-7.4039998054504395 C10.253000259399414,-3.2269999980926514 20.12700080871582,21.834999084472656 20.12700080871582,21.834999084472656 C20.12700080871582,21.834999084472656 22.405000686645508,22.21500015258789 22.405000686645508,20.31599998474121 C13.821000099182129,-8.79699993133545 -5.034999847412109,-15.89900016784668 -5.677999973297119,-16.132999420166016z"></path>
        </g>
      </g>
    </g>
    <g mask="url(#__lottie_element_97_2)" style="display: block;">
      <g transform="matrix(1,0,0,1,144.53399658203125,12.592994689941406)" opacity="1">
        <g opacity="1" transform="matrix(1,0,0,1,22.655000686645508,22.465999603271484)">
          <path fill="rgb(248,108,80)" fill-opacity="1"
            d=" M5.678999900817871,-16.132999420166016 C6.736000061035156,-19.652000427246094 9.998000144958496,-22.21500015258789 13.862000465393066,-22.21500015258789 C18.579999923706055,-22.21500015258789 22.4060001373291,-18.389999389648438 22.4060001373291,-13.670999526977539 C22.4060001373291,-8.95199966430664 18.579999923706055,-5.126999855041504 13.862000465393066,-5.126999855041504 C11.644000053405762,-5.126999855041504 9.623000144958496,-5.9710001945495605 8.104999542236328,-7.355999946594238 C8.022000312805176,-7.357999801635742 7.973999977111816,-7.372000217437744 7.973999977111816,-7.4039998054504395 C-10.253999710083008,-3.2269999980926514 -20.12700080871582,21.834999084472656 -20.12700080871582,21.834999084472656 C-20.12700080871582,21.834999084472656 -22.4060001373291,22.21500015258789 -22.4060001373291,20.31599998474121 C-13.821000099182129,-8.79699993133545 5.034999847412109,-15.89900016784668 5.678999900817871,-16.132999420166016z"></path>
        </g>
      </g>
    </g>
    <g mask="url(#__lottie_element_104_1)" style="display: block;">
      <g clip-path="url(#__lottie_element_101)"
        transform="matrix(1.2599999904632568,0,0,1.2599999904632568,-757.0800170898438,-429.0899963378906)"
        opacity="1">
        <g
          transform="matrix(2.1700000762939453,0,0,2.1700000762939453,739.7449951171875,477.0150146484375)"
          opacity="1" style="display: block;">
          <g opacity="1" transform="matrix(1,0,0,1,-48.5,-79.5)">
            <path fill="rgb(234,56,52)" fill-opacity="1"
              d=" M0,-78.5 C43.32415008544922,-78.5 78.5,-43.32415008544922 78.5,0 C78.5,43.32415008544922 43.32415008544922,78.5 0,78.5 C-43.32415008544922,78.5 -78.5,43.32415008544922 -78.5,0 C-78.5,-43.32415008544922 -43.32415008544922,-78.5 0,-78.5z"></path>
            <path fill="rgb(234,56,52)" fill-opacity="1"
              d=" M0,-78.5 C43.32415008544922,-78.5 78.5,-43.32415008544922 78.5,0 C78.5,43.32415008544922 43.32415008544922,78.5 0,78.5 C-43.32415008544922,78.5 -78.5,43.32415008544922 -78.5,0 C-78.5,-43.32415008544922 -43.32415008544922,-78.5 0,-78.5z"></path>
          </g>
        </g>
        <g
          transform="matrix(2.1700000762939453,0,0,2.1700000762939453,739.7449951171875,477.0150146484375)"
          opacity="1" style="display: block;">
          <g opacity="1" transform="matrix(1,0,0,1,-48.5,-79.5)">
            <path fill="rgb(253,172,125)" fill-opacity="1"
              d=" M0,-78.5 C43.32415008544922,-78.5 78.5,-43.32415008544922 78.5,0 C78.5,43.32415008544922 43.32415008544922,78.5 0,78.5 C-43.32415008544922,78.5 -78.5,43.32415008544922 -78.5,0 C-78.5,-43.32415008544922 -43.32415008544922,-78.5 0,-78.5z"></path>
          </g>
        </g>
        <g
          transform="matrix(1.9964714050292969,0,0,1.9964714050292969,731.328857421875,463.219482421875)"
          opacity="1" style="display: block;">
          <g opacity="1" transform="matrix(1,0,0,1,-48.5,-79.5)">
            <path fill="rgb(253,145,99)" fill-opacity="1"
              d=" M0,-78.5 C43.32415008544922,-78.5 78.5,-43.32415008544922 78.5,0 C78.5,43.32415008544922 43.32415008544922,78.5 0,78.5 C-43.32415008544922,78.5 -78.5,43.32415008544922 -78.5,0 C-78.5,-43.32415008544922 -43.32415008544922,-78.5 0,-78.5z"></path>
          </g>
        </g>
        <g transform="matrix(1.7795490026474,0,0,1.7795490026474,720.80810546875,445.9741516113281)"
          opacity="1" style="display: block;">
          <g opacity="1" transform="matrix(1,0,0,1,-48.5,-79.5)">
            <path fill="rgb(248,109,80)" fill-opacity="1"
              d=" M0,-78.5 C43.32415008544922,-78.5 78.5,-43.32415008544922 78.5,0 C78.5,43.32415008544922 43.32415008544922,78.5 0,78.5 C-43.32415008544922,78.5 -78.5,43.32415008544922 -78.5,0 C-78.5,-43.32415008544922 -43.32415008544922,-78.5 0,-78.5z"></path>
            <path fill="rgb(248,109,80)" fill-opacity="1"
              d=" M0,-78.5 C43.32415008544922,-78.5 78.5,-43.32415008544922 78.5,0 C78.5,43.32415008544922 43.32415008544922,78.5 0,78.5 C-43.32415008544922,78.5 -78.5,43.32415008544922 -78.5,0 C-78.5,-43.32415008544922 -43.32415008544922,-78.5 0,-78.5z"></path>
          </g>
        </g>
        <g
          transform="matrix(1.5626260042190552,0,0,1.5626260042190552,710.287353515625,428.728759765625)"
          opacity="1" style="display: block;">
          <g opacity="1" transform="matrix(1,0,0,1,-48.5,-79.5)">
            <path fill="rgb(244,81,66)" fill-opacity="1"
              d=" M0,-78.5 C43.32415008544922,-78.5 78.5,-43.32415008544922 78.5,0 C78.5,43.32415008544922 43.32415008544922,78.5 0,78.5 C-43.32415008544922,78.5 -78.5,43.32415008544922 -78.5,0 C-78.5,-43.32415008544922 -43.32415008544922,-78.5 0,-78.5z"></path>
            <path fill="rgb(244,81,66)" fill-opacity="1"
              d=" M0,-78.5 C43.32415008544922,-78.5 78.5,-43.32415008544922 78.5,0 C78.5,43.32415008544922 43.32415008544922,78.5 0,78.5 C-43.32415008544922,78.5 -78.5,43.32415008544922 -78.5,0 C-78.5,-43.32415008544922 -43.32415008544922,-78.5 0,-78.5z"></path>
          </g>
        </g>
        <g
          transform="matrix(1.3457030057907104,0,0,1.3457030057907104,699.7666015625,411.4833984375)"
          opacity="1" style="display: block;">
          <g opacity="1" transform="matrix(1,0,0,1,-48.5,-79.5)">
            <path fill="rgb(234,56,52)" fill-opacity="1"
              d=" M0,-78.5 C43.32415008544922,-78.5 78.5,-43.32415008544922 78.5,0 C78.5,43.32415008544922 43.32415008544922,78.5 0,78.5 C-43.32415008544922,78.5 -78.5,43.32415008544922 -78.5,0 C-78.5,-43.32415008544922 -43.32415008544922,-78.5 0,-78.5z"></path>
            <path fill="rgb(234,56,52)" fill-opacity="1"
              d=" M0,-78.5 C43.32415008544922,-78.5 78.5,-43.32415008544922 78.5,0 C78.5,43.32415008544922 43.32415008544922,78.5 0,78.5 C-43.32415008544922,78.5 -78.5,43.32415008544922 -78.5,0 C-78.5,-43.32415008544922 -43.32415008544922,-78.5 0,-78.5z"></path>
          </g>
        </g>
        <g
          transform="matrix(1.1287859678268433,0,0,1.1287859678268433,689.24609375,394.2384948730469)"
          opacity="1" style="display: block;">
          <g opacity="1" transform="matrix(1,0,0,1,-48.5,-79.5)">
            <path fill="rgb(253,172,125)" fill-opacity="1"
              d=" M0,-78.5 C43.32415008544922,-78.5 78.5,-43.32415008544922 78.5,0 C78.5,43.32415008544922 43.32415008544922,78.5 0,78.5 C-43.32415008544922,78.5 -78.5,43.32415008544922 -78.5,0 C-78.5,-43.32415008544922 -43.32415008544922,-78.5 0,-78.5z"></path>
          </g>
        </g>
        <g
          transform="matrix(0.9118636250495911,0,0,0.9118636250495911,678.7254028320312,376.9931640625)"
          opacity="1" style="display: block;">
          <g opacity="1" transform="matrix(1,0,0,1,-48.5,-79.5)">
            <path fill="rgb(253,145,99)" fill-opacity="1"
              d=" M0,-78.5 C43.32415008544922,-78.5 78.5,-43.32415008544922 78.5,0 C78.5,43.32415008544922 43.32415008544922,78.5 0,78.5 C-43.32415008544922,78.5 -78.5,43.32415008544922 -78.5,0 C-78.5,-43.32415008544922 -43.32415008544922,-78.5 0,-78.5z"></path>
          </g>
        </g>
        <g
          transform="matrix(0.7599999904632568,0,0,0.7599999904632568,671.3599853515625,364.91998291015625)"
          opacity="1" style="display: block;">
          <g opacity="1" transform="matrix(1,0,0,1,-48.5,-79.5)">
            <path fill="rgb(248,109,80)" fill-opacity="1"
              d=" M0,-78.5 C43.32415008544922,-78.5 78.5,-43.32415008544922 78.5,0 C78.5,43.32415008544922 43.32415008544922,78.5 0,78.5 C-43.32415008544922,78.5 -78.5,43.32415008544922 -78.5,0 C-78.5,-43.32415008544922 -43.32415008544922,-78.5 0,-78.5z"></path>
            <path fill="rgb(248,109,80)" fill-opacity="1"
              d=" M0,-78.5 C43.32415008544922,-78.5 78.5,-43.32415008544922 78.5,0 C78.5,43.32415008544922 43.32415008544922,78.5 0,78.5 C-43.32415008544922,78.5 -78.5,43.32415008544922 -78.5,0 C-78.5,-43.32415008544922 -43.32415008544922,-78.5 0,-78.5z"></path>
          </g>
        </g>
        <g
          transform="matrix(0.7599999904632568,0,0,0.7599999904632568,671.3599853515625,364.91998291015625)"
          opacity="1" style="display: block;">
          <g opacity="1" transform="matrix(1,0,0,1,-48.5,-79.5)">
            <path fill="rgb(244,81,66)" fill-opacity="1"
              d=" M0,-78.5 C43.32415008544922,-78.5 78.5,-43.32415008544922 78.5,0 C78.5,43.32415008544922 43.32415008544922,78.5 0,78.5 C-43.32415008544922,78.5 -78.5,43.32415008544922 -78.5,0 C-78.5,-43.32415008544922 -43.32415008544922,-78.5 0,-78.5z"></path>
            <path fill="rgb(244,81,66)" fill-opacity="1"
              d=" M0,-78.5 C43.32415008544922,-78.5 78.5,-43.32415008544922 78.5,0 C78.5,43.32415008544922 43.32415008544922,78.5 0,78.5 C-43.32415008544922,78.5 -78.5,43.32415008544922 -78.5,0 C-78.5,-43.32415008544922 -43.32415008544922,-78.5 0,-78.5z"></path>
          </g>
        </g>
        <g
          transform="matrix(0.7599999904632568,0,0,0.7599999904632568,671.3599853515625,364.91998291015625)"
          opacity="1" style="display: block;">
          <g opacity="1" transform="matrix(1,0,0,1,-48.5,-79.5)">
            <path fill="rgb(234,56,52)" fill-opacity="1"
              d=" M0,-78.5 C43.32415008544922,-78.5 78.5,-43.32415008544922 78.5,0 C78.5,43.32415008544922 43.32415008544922,78.5 0,78.5 C-43.32415008544922,78.5 -78.5,43.32415008544922 -78.5,0 C-78.5,-43.32415008544922 -43.32415008544922,-78.5 0,-78.5z"></path>
            <path fill="rgb(234,56,52)" fill-opacity="1"
              d=" M0,-78.5 C43.32415008544922,-78.5 78.5,-43.32415008544922 78.5,0 C78.5,43.32415008544922 43.32415008544922,78.5 0,78.5 C-43.32415008544922,78.5 -78.5,43.32415008544922 -78.5,0 C-78.5,-43.32415008544922 -43.32415008544922,-78.5 0,-78.5z"></path>
          </g>
        </g>
      </g>
    </g>
    <g transform="matrix(1,0,0,1,48.34400177001953,60.37300109863281)" opacity="1"
      style="display: block;">
      <path fill="rgb(255,255,255)" fill-opacity="1"
        d=" M43.25,21.75 C43.25,33.63 33.62,43.25 21.75,43.25 C9.88,43.25 0.25,33.63 0.25,21.75 C0.25,9.88 9.88,0.25 21.75,0.25 C33.62,0.25 43.25,9.88 43.25,21.75z"></path>
      <g opacity="1" transform="matrix(1,0,0,1,21.75,21.75)">
        <path fill="rgb(255,255,255)" fill-opacity="1"
          d=" M21.5,0 C21.5,11.875 11.87399959564209,21.5 0,21.5 C-11.87399959564209,21.5 -21.5,11.875 -21.5,0 C-21.5,-11.87399959564209 -11.87399959564209,-21.5 0,-21.5 C11.87399959564209,-21.5 21.5,-11.87399959564209 21.5,0z"></path>
      </g>
    </g>
    <g transform="matrix(1,0,0,1,48.34400177001953,60.37300109863281)" opacity="1"
      style="display: block;">
      <g opacity="1" transform="matrix(1,0,0,1,29.75,21.750999450683594)">
        <path fill="rgb(248,108,80)" fill-opacity="1"
          d=" M10.720000267028809,-0.0010000000474974513 C10.720000267028809,5.920000076293945 5.921000003814697,10.720000267028809 0,10.720000267028809 C-5.921000003814697,10.720000267028809 -10.720000267028809,5.920000076293945 -10.720000267028809,-0.0010000000474974513 C-10.720000267028809,-5.921000003814697 -5.921000003814697,-10.720000267028809 0,-10.720000267028809 C5.921000003814697,-10.720000267028809 10.720000267028809,-5.921000003814697 10.720000267028809,-0.0010000000474974513z"></path>
      </g>
    </g>
    <g mask="url(#__lottie_element_116_1)" style="display: block;">
      <g
        transform="matrix(1.0219999551773071,0,0,1.0219999551773071,47.865501403808594,59.894500732421875)"
        opacity="1">
        <path fill="rgb(248,109,80)" fill-opacity="1"
          d=" M43.25,21.75 C43.25,33.63 33.62,43.25 21.75,43.25 C9.88,43.25 0.25,33.63 0.25,21.75 C0.25,9.88 9.88,0.25 21.75,0.25 C33.62,0.25 43.25,9.88 43.25,21.75z"></path>
        <g opacity="1" transform="matrix(1,0,0,1,21.75,21.75)">
          <path fill="rgb(248,109,80)" fill-opacity="1"
            d=" M21.5,0 C21.5,11.875 11.87399959564209,21.5 0,21.5 C-11.87399959564209,21.5 -21.5,11.875 -21.5,0 C-21.5,-11.87399959564209 -11.87399959564209,-21.5 0,-21.5 C11.87399959564209,-21.5 21.5,-11.87399959564209 21.5,0z"></path>
        </g>
      </g>
    </g>
    <g transform="matrix(1,0,0,1,125.843994140625,60.37299728393555)" opacity="1"
      style="display: block;">
      <path fill="rgb(255,255,255)" fill-opacity="1"
        d=" M43.25,21.75 C43.25,33.63 33.62,43.25 21.75,43.25 C9.88,43.25 0.25,33.63 0.25,21.75 C0.25,9.88 9.88,0.25 21.75,0.25 C33.62,0.25 43.25,9.88 43.25,21.75z"></path>
      <g opacity="1" transform="matrix(1,0,0,1,21.75,21.75)">
        <path fill="rgb(255,255,255)" fill-opacity="1"
          d=" M21.5,0 C21.5,11.875 11.87399959564209,21.5 0,21.5 C-11.87399959564209,21.5 -21.5,11.875 -21.5,0 C-21.5,-11.87399959564209 -11.87399959564209,-21.5 0,-21.5 C11.87399959564209,-21.5 21.5,-11.87399959564209 21.5,0z"></path>
      </g>
    </g>
    <g transform="matrix(1,0,0,1,109.843994140625,60.37299728393555)" opacity="1"
      style="display: block;">
      <g opacity="1" transform="matrix(1,0,0,1,29.75,21.750999450683594)">
        <path fill="rgb(248,108,80)" fill-opacity="1"
          d=" M10.720000267028809,-0.0010000000474974513 C10.720000267028809,5.920000076293945 5.921000003814697,10.720000267028809 0,10.720000267028809 C-5.921000003814697,10.720000267028809 -10.720000267028809,5.920000076293945 -10.720000267028809,-0.0010000000474974513 C-10.720000267028809,-5.921000003814697 -5.921000003814697,-10.720000267028809 0,-10.720000267028809 C5.921000003814697,-10.720000267028809 10.720000267028809,-5.921000003814697 10.720000267028809,-0.0010000000474974513z"></path>
      </g>
    </g>
    <g mask="url(#__lottie_element_129_1)" style="display: block;">
      <g
        transform="matrix(1.0219999551773071,0,0,1.0219999551773071,125.36549377441406,59.89449691772461)"
        opacity="1">
        <path fill="rgb(248,109,80)" fill-opacity="1"
          d=" M43.25,21.75 C43.25,33.63 33.62,43.25 21.75,43.25 C9.88,43.25 0.25,33.63 0.25,21.75 C0.25,9.88 9.88,0.25 21.75,0.25 C33.62,0.25 43.25,9.88 43.25,21.75z"></path>
        <g opacity="1" transform="matrix(1,0,0,1,21.75,21.75)">
          <path fill="rgb(248,109,80)" fill-opacity="1"
            d=" M21.5,0 C21.5,11.875 11.87399959564209,21.5 0,21.5 C-11.87399959564209,21.5 -21.5,11.875 -21.5,0 C-21.5,-11.87399959564209 -11.87399959564209,-21.5 0,-21.5 C11.87399959564209,-21.5 21.5,-11.87399959564209 21.5,0z"></path>
        </g>
      </g>
    </g>
  </g>
</svg>